<svg width="615" height="487" viewBox="0 0 615 487" fill="none" xmlns="http://www.w3.org/2000/svg">
<rect width="615" height="487" fill="white"/>
<g filter="url(#filter0_d)">
<path d="M286.375 399.031C283.844 420.688 275.828 437.422 262.328 449.234C248.922 460.953 231.062 466.812 208.75 466.812C184.562 466.812 165.156 458.141 150.531 440.797C136 423.453 128.734 400.25 128.734 371.188V351.5C128.734 332.469 132.109 315.734 138.859 301.297C145.703 286.859 155.359 275.797 167.828 268.109C180.297 260.328 194.734 256.438 211.141 256.438C232.891 256.438 250.328 262.531 263.453 274.719C276.578 286.812 284.219 303.594 286.375 325.062H259.234C256.891 308.75 251.781 296.938 243.906 289.625C236.125 282.312 225.203 278.656 211.141 278.656C193.891 278.656 180.344 285.031 170.5 297.781C160.75 310.531 155.875 328.672 155.875 352.203V372.031C155.875 394.25 160.516 411.922 169.797 425.047C179.078 438.172 192.062 444.734 208.75 444.734C223.75 444.734 235.234 441.359 243.203 434.609C251.266 427.766 256.609 415.906 259.234 399.031H286.375Z" fill="#F32929" fill-opacity="0.55"/>
</g>
<g filter="url(#filter1_d)">
<path d="M234.195 388.973C234.195 384.09 232.34 380.314 228.629 377.645C224.983 374.91 218.57 372.566 209.391 370.613C200.276 368.66 193.017 366.316 187.613 363.582C182.275 360.848 178.303 357.592 175.699 353.816C173.16 350.04 171.891 345.548 171.891 340.34C171.891 331.681 175.536 324.357 182.828 318.367C190.185 312.378 199.56 309.383 210.953 309.383C222.932 309.383 232.633 312.475 240.055 318.66C247.542 324.845 251.285 332.755 251.285 342.391H233.121C233.121 337.443 231.005 333.178 226.773 329.598C222.607 326.017 217.333 324.227 210.953 324.227C204.378 324.227 199.234 325.659 195.523 328.523C191.812 331.388 189.957 335.132 189.957 339.754C189.957 344.116 191.682 347.404 195.133 349.617C198.583 351.831 204.801 353.947 213.785 355.965C222.835 357.983 230.159 360.392 235.758 363.191C241.357 365.991 245.491 369.376 248.16 373.348C250.895 377.254 252.262 382.039 252.262 387.703C252.262 397.143 248.486 404.728 240.934 410.457C233.382 416.121 223.583 418.953 211.539 418.953C203.076 418.953 195.589 417.456 189.078 414.461C182.568 411.466 177.457 407.299 173.746 401.961C170.1 396.557 168.277 390.73 168.277 384.48H186.344C186.669 390.535 189.078 395.353 193.57 398.934C198.128 402.449 204.117 404.207 211.539 404.207C218.375 404.207 223.844 402.84 227.945 400.105C232.112 397.306 234.195 393.595 234.195 388.973Z" fill="#271717"/>
</g>
<g style="mix-blend-mode:multiply" filter="url(#filter2_d)">
<path d="M381.336 417H367.2L313.514 334.822V417H299.378V310.359H313.514L367.347 392.903V310.359H381.336V417ZM437.073 418.465C426.331 418.465 417.591 414.949 410.853 407.918C404.114 400.838 400.745 391.39 400.745 379.573V377.083C400.745 369.222 402.234 362.215 405.213 356.062C408.24 349.861 412.439 345.027 417.811 341.561C423.23 338.045 429.09 336.287 435.389 336.287C445.691 336.287 453.699 339.681 459.412 346.468C465.125 353.255 467.981 362.972 467.981 375.618V381.258H414.295C414.49 389.07 416.761 395.394 421.106 400.228C425.501 405.013 431.067 407.405 437.806 407.405C442.591 407.405 446.644 406.429 449.964 404.476C453.284 402.522 456.189 399.935 458.68 396.712L466.956 403.157C460.315 413.362 450.354 418.465 437.073 418.465ZM435.389 347.42C429.92 347.42 425.33 349.422 421.619 353.426C417.908 357.381 415.613 362.947 414.734 370.125H454.432V369.1C454.041 362.215 452.186 356.893 448.865 353.133C445.545 349.324 441.053 347.42 435.389 347.42ZM502.112 318.562V337.752H516.907V348.226H502.112V397.371C502.112 400.545 502.771 402.938 504.09 404.549C505.408 406.111 507.654 406.893 510.828 406.893C512.391 406.893 514.539 406.6 517.273 406.014V417C513.709 417.977 510.242 418.465 506.873 418.465C500.818 418.465 496.253 416.634 493.177 412.972C490.101 409.31 488.562 404.109 488.562 397.371V348.226H474.134V337.752H488.562V318.562H502.112Z" fill="#271717"/>
</g>
<path d="M399 233C354.449 137.155 261.973 132.242 221.304 141.766" stroke="#1B40A0" stroke-width="12" stroke-linecap="round" stroke-linejoin="round"/>
<path d="M463.196 207C400.815 67.9756 270.964 61.0182 213.836 74.9176" stroke="#5A7BD0" stroke-width="12" stroke-linecap="round" stroke-linejoin="round"/>
<path d="M337 264C307.4 197.377 250.667 196.494 226 204.38" stroke="#072077" stroke-width="12" stroke-linecap="round" stroke-linejoin="round"/>
<defs>
<filter id="filter0_d" x="124.734" y="256.438" width="165.641" height="218.375" filterUnits="userSpaceOnUse" color-interpolation-filters="sRGB">
<feFlood flood-opacity="0" result="BackgroundImageFix"/>
<feColorMatrix in="SourceAlpha" type="matrix" values="0 0 0 0 0 0 0 0 0 0 0 0 0 0 0 0 0 0 127 0"/>
<feOffset dy="4"/>
<feGaussianBlur stdDeviation="2"/>
<feColorMatrix type="matrix" values="0 0 0 0 0 0 0 0 0 0 0 0 0 0 0 0 0 0 0.25 0"/>
<feBlend mode="normal" in2="BackgroundImageFix" result="effect1_dropShadow"/>
<feBlend mode="normal" in="SourceGraphic" in2="effect1_dropShadow" result="shape"/>
</filter>
<filter id="filter1_d" x="164.277" y="309.383" width="91.9844" height="117.57" filterUnits="userSpaceOnUse" color-interpolation-filters="sRGB">
<feFlood flood-opacity="0" result="BackgroundImageFix"/>
<feColorMatrix in="SourceAlpha" type="matrix" values="0 0 0 0 0 0 0 0 0 0 0 0 0 0 0 0 0 0 127 0"/>
<feOffset dy="4"/>
<feGaussianBlur stdDeviation="2"/>
<feColorMatrix type="matrix" values="0 0 0 0 0 0 0 0 0 0 0 0 0 0 0 0 0 0 0.25 0"/>
<feBlend mode="normal" in2="BackgroundImageFix" result="effect1_dropShadow"/>
<feBlend mode="normal" in="SourceGraphic" in2="effect1_dropShadow" result="shape"/>
</filter>
<filter id="filter2_d" x="295.378" y="310.359" width="225.896" height="116.105" filterUnits="userSpaceOnUse" color-interpolation-filters="sRGB">
<feFlood flood-opacity="0" result="BackgroundImageFix"/>
<feColorMatrix in="SourceAlpha" type="matrix" values="0 0 0 0 0 0 0 0 0 0 0 0 0 0 0 0 0 0 127 0"/>
<feOffset dy="4"/>
<feGaussianBlur stdDeviation="2"/>
<feColorMatrix type="matrix" values="0 0 0 0 0 0 0 0 0 0 0 0 0 0 0 0 0 0 0.25 0"/>
<feBlend mode="normal" in2="BackgroundImageFix" result="effect1_dropShadow"/>
<feBlend mode="normal" in="SourceGraphic" in2="effect1_dropShadow" result="shape"/>
</filter>
</defs>
</svg>
